<svg xmlns="http://www.w3.org/2000/svg" width="40.031" height="46" viewBox="0 0 40.031 46">
  <defs>
    <style>
      .cls-1 {
        fill-rule: evenodd;
      }
    </style>
  </defs>
  <path id="adv1.svg" class="cls-1" d="M521.2,3707.44a3.4,3.4,0,0,0-2.582-1.18H515.35v-1a2.277,2.277,0,0,0-2.294-2.26H490.9a2.277,2.277,0,0,0-2.294,2.26v1h-3.268a3.4,3.4,0,0,0-2.582,1.18,3.229,3.229,0,0,0-.757,2.66,17.221,17.221,0,0,0,8.9,12.29,22.454,22.454,0,0,0,1.462,2.89,13.566,13.566,0,0,0,6.268,5.82,4.872,4.872,0,0,1-3.818,5.2h-0.013a1.067,1.067,0,0,0-.831,1.04v4.88h-2.008a3.222,3.222,0,0,0-3.247,3.19v2.52a1.077,1.077,0,0,0,1.082,1.07h24.478a1.077,1.077,0,0,0,1.083-1.07v-2.52a3.222,3.222,0,0,0-3.247-3.19h-2.009v-4.88a1.067,1.067,0,0,0-.832-1.04h-0.014a4.875,4.875,0,0,1-3.813-5.25,13.588,13.588,0,0,0,6.163-5.77,22.583,22.583,0,0,0,1.462-2.89,17.221,17.221,0,0,0,8.9-12.29A3.233,3.233,0,0,0,521.2,3707.44Zm-37.066,2.31a1.139,1.139,0,0,1,.27-0.94,1.226,1.226,0,0,1,.933-0.42H488.6v1.96a32.933,32.933,0,0,0,1.154,8.77A15.041,15.041,0,0,1,484.133,3709.75Zm27.97,34.6a1.075,1.075,0,0,1,1.082,1.06v1.46H490.872v-1.46a1.075,1.075,0,0,1,1.082-1.06H512.1Zm-4.173-5.95v3.82h-11.8v-3.82h11.8Zm-8.964-2.13a6.949,6.949,0,0,0,1.848-4.59,9,9,0,0,0,1.163.08,8.9,8.9,0,0,0,1.266-.1,6.938,6.938,0,0,0,1.858,4.61h-6.135Zm14.219-25.92a27.166,27.166,0,0,1-3.448,13.84c-2.118,3.51-4.874,5.44-7.76,5.44s-5.642-1.93-7.76-5.44a27.156,27.156,0,0,1-3.448-13.84v-5.09a0.124,0.124,0,0,1,.128-0.13h22.159a0.125,0.125,0,0,1,.129.13v5.09Zm6.635-.6a15.04,15.04,0,0,1-5.624,9.37,33.029,33.029,0,0,0,1.154-8.77v-1.96h3.267a1.226,1.226,0,0,1,.933.42A1.139,1.139,0,0,1,519.82,3709.75Zm-11.272,4.18a1.08,1.08,0,0,0-.874-0.73l-3.266-.46-1.461-2.91a1.085,1.085,0,0,0-1.941,0l-1.461,2.91-3.266.46a1.081,1.081,0,0,0-.874.73,1.052,1.052,0,0,0,.274,1.09l2.364,2.27-0.558,3.2a1.054,1.054,0,0,0,.431,1.04,1.089,1.089,0,0,0,1.139.08l2.922-1.51,2.921,1.51a1.115,1.115,0,0,0,.5.12,1.127,1.127,0,0,0,.637-0.2,1.055,1.055,0,0,0,.43-1.04l-0.558-3.2,2.364-2.27A1.052,1.052,0,0,0,508.548,3713.93Zm-4.556,2.22a1.067,1.067,0,0,0-.311.95l0.283,1.62-1.484-.77a1.116,1.116,0,0,0-1.007,0l-1.484.77,0.283-1.62a1.067,1.067,0,0,0-.311-0.95l-1.2-1.15,1.659-.24a1.066,1.066,0,0,0,.815-0.58l0.742-1.48,0.742,1.48a1.062,1.062,0,0,0,.814.58l1.659,0.24Z" transform="translate(-481.969 -3703)"/>
</svg>
