<svg xmlns="http://www.w3.org/2000/svg" width="45" height="45" viewBox="0 0 45 45">
  <defs>
    <style>
      .cls-1 {
        fill-rule: evenodd;
      }
    </style>
  </defs>
  <path id="adv3.svg" class="cls-1" d="M1132.2,3735.86a4.013,4.013,0,0,0,.76-2.37v-5.28a0.879,0.879,0,0,0-.87-0.88h-3.93a3.3,3.3,0,0,0-3.3,3.3v2.86a4.044,4.044,0,0,0,.77,2.37,5.8,5.8,0,0,0-1.72.57,7.472,7.472,0,0,0-5.52-3.29,0.037,0.037,0,0,1-.03-0.01,5.115,5.115,0,0,0,1.33-3.45v-7.18a0.875,0.875,0,0,0-.88-0.88h-5.34a4.17,4.17,0,0,0-4.16,4.16v3.9a5.115,5.115,0,0,0,1.33,3.45,0.037,0.037,0,0,1-.03.01,7.472,7.472,0,0,0-5.52,3.29,5.8,5.8,0,0,0-1.72-.57,4.044,4.044,0,0,0,.77-2.37v-5.28a0.888,0.888,0,0,0-.88-0.88h-3.93a3.3,3.3,0,0,0-3.29,3.3v2.86a4.013,4.013,0,0,0,.76,2.37,5.742,5.742,0,0,0-4.8,5.66v2.6a0.875,0.875,0,0,0,.88.88h43.24a0.875,0.875,0,0,0,.88-0.88v-2.6A5.742,5.742,0,0,0,1132.2,3735.86Zm-34.41-5.23a1.541,1.541,0,0,1,1.54-1.54h3.05v1.07a0.95,0.95,0,0,1-.95.95h-3.64v-0.48Zm0,2.24h3.64a2.755,2.755,0,0,0,.95-0.17v0.79a2.3,2.3,0,1,1-4.59,0v-0.62Zm2.86,4.67-0.56.57-0.57-.57h1.13Zm3.18,3.04v2.66h-10.07v-1.72a3.978,3.978,0,0,1,3.33-3.92l2.37,2.37a0.881,0.881,0,0,0,1.25,0l2.38-2.37a3.694,3.694,0,0,1,1.2.4A7.333,7.333,0,0,0,1103.83,3740.58Zm10.67-7.47a3.436,3.436,0,0,1-3.43-3.43v-1.16h5.25a3.377,3.377,0,0,0,1.61-.41v1.57A3.436,3.436,0,0,1,1114.5,3733.11Zm1.53,1.76-1.53,1.53-1.53-1.53h3.06Zm-4.96-9.09h0a2.407,2.407,0,0,1,2.4-2.4h4.46v1.77a1.609,1.609,0,0,1-1.61,1.61h-5.25v-0.98h0Zm12.35,17.46h-17.84v-1.76h5.73a0.875,0.875,0,1,0,0-1.75h-5.66a5.717,5.717,0,0,1,4.88-4.81l3.35,3.34a0.869,0.869,0,0,0,1.24,0l3.35-3.34a5.718,5.718,0,0,1,4.95,5.66v2.66h0Zm3.2-12.61a1.541,1.541,0,0,1,1.54-1.54h3.05v1.07a0.952,0.952,0,0,1-.96.95h-3.63v-0.48Zm0,2.24h3.63a2.769,2.769,0,0,0,.96-0.17v0.79a2.3,2.3,0,1,1-4.59,0v-0.62h0Zm2.86,4.67-0.57.57-0.56-.57h1.13Zm-4.31,5.7v-2.66a7.333,7.333,0,0,0-.46-2.58,3.694,3.694,0,0,1,1.2-.4l2.38,2.37a0.881,0.881,0,0,0,1.25,0l2.37-2.37a3.978,3.978,0,0,1,3.33,3.92v1.72h-10.07Zm-6.34-37.5a0.881,0.881,0,0,0-1.24,0l-4.31,4.31-1.87-1.86a0.877,0.877,0,1,0-1.24,1.24l2.48,2.49a0.881,0.881,0,0,0,1.25,0l4.93-4.94A0.881,0.881,0,0,0,1118.83,3705.74Zm-0.74-4.98a0.88,0.88,0,0,0-.71,1.61,7.066,7.066,0,1,1-5.79.01,0.877,0.877,0,1,0-.72-1.6A8.828,8.828,0,1,0,1118.09,3700.76Zm-3.56-.76h-0.03a0.88,0.88,0,0,0,0,1.76h0.03A0.88,0.88,0,0,0,1114.53,3700Zm0.59,39.98a0.894,0.894,0,0,0-1.24,0,0.881,0.881,0,0,0,0,1.25,0.894,0.894,0,0,0,1.24,0A0.881,0.881,0,0,0,1115.12,3739.98Z" transform="translate(-1092 -3700)"/>
</svg>
