<svg xmlns="http://www.w3.org/2000/svg" width="37.97" height="52.97" viewBox="0 0 37.97 52.97">
  <defs>
    <style>
      .cls-1 {
        fill-rule: evenodd;
      }
    </style>
  </defs>
  <path id="adv4.svg" class="cls-1" d="M1408.38,3711.21a1.031,1.031,0,1,0-.9,1.8,0.986,0.986,0,0,0,.24.03,1.031,1.031,0,0,0,1.03-1.04A1.045,1.045,0,0,0,1408.38,3711.21Zm15.67,4.49a1.017,1.017,0,0,0-.83-0.7l-2.99-.44-1.34-2.74a1.014,1.014,0,0,0-.92-0.58h0a1.014,1.014,0,0,0-.92.58l-1.34,2.74-2.99.44a1.017,1.017,0,0,0-.83.7,1.035,1.035,0,0,0,.26,1.06l2.17,2.14-0.52,3.01a1.058,1.058,0,0,0,.41,1.01,0.989,0.989,0,0,0,1.08.08l2.68-1.42,2.68,1.42a1.009,1.009,0,0,0,1.08-.08,1.058,1.058,0,0,0,.41-1.01l-0.52-3.01,2.17-2.14A1.035,1.035,0,0,0,1424.05,3715.7Zm-4.24,2.1a1.055,1.055,0,0,0-.3.91l0.25,1.48-1.31-.7a1.08,1.08,0,0,0-.96,0l-1.31.7,0.25-1.48a1.055,1.055,0,0,0-.3-0.91l-1.06-1.06,1.47-.21a1.027,1.027,0,0,0,.77-0.57l0.66-1.35,0.66,1.35a1.027,1.027,0,0,0,.77.57l1.47,0.21Zm-1.84-13.04a12.376,12.376,0,0,0-8.33,3.29,1.039,1.039,0,0,0-.07,1.46,1.028,1.028,0,0,0,1.45.07,10.153,10.153,0,0,1,6.95-2.75,10.351,10.351,0,1,1-10.23,9.83c0.01-.18.02-0.36,0.04-0.53a1.033,1.033,0,0,0-.92-1.13,1.018,1.018,0,0,0-1.12.93c-0.02.2-.04,0.41-0.05,0.62A12.3,12.3,0,1,0,1417.97,3704.76Zm18.77,11.79-2.82-3.69,0.62-4.61a1.028,1.028,0,0,0-.62-1.1l-4.28-1.76-1.74-4.32a1.022,1.022,0,0,0-1.09-.63l-4.57.63-3.64-2.86a1.021,1.021,0,0,0-1.26,0l-3.64,2.86-4.57-.63a1.022,1.022,0,0,0-1.09.63l-1.74,4.32-4.28,1.76a1.028,1.028,0,0,0-.62,1.1l0.62,4.61-2.82,3.69a1.021,1.021,0,0,0,0,1.26l2.82,3.69-0.62,4.61a1.028,1.028,0,0,0,.62,1.1l4.28,1.76,1.74,4.32a1.011,1.011,0,0,0,1.09.63l1.67-.23v16.27a1.026,1.026,0,0,0,1.75.74l5.42-5.48,5.42,5.48a1.026,1.026,0,0,0,1.75-.74v-16.27l1.67,0.23a1.011,1.011,0,0,0,1.09-.63l1.74-4.32,4.28-1.76a1.028,1.028,0,0,0,.62-1.1l-0.62-4.61,2.82-3.69A1.021,1.021,0,0,0,1436.74,3716.55Zm-13.65,30.91h0l-4.4-4.44a1.014,1.014,0,0,0-1.44,0l-4.4,4.44v-14.05l0.85-.12,3.64,2.86a1.05,1.05,0,0,0,1.26,0l3.64-2.86,0.85,0.12v14.05h0Zm8.94-26.89a1.075,1.075,0,0,0-.2.78l0.58,4.25-3.94,1.62a1.043,1.043,0,0,0-.56.57l-1.61,3.97-1.78-.24a1.042,1.042,0,0,0-.53-0.08l-1.89-.26a1.013,1.013,0,0,0-.77.21l-3.36,2.63-3.36-2.63a0.99,0.99,0,0,0-.76-0.21l-4.21.58-1.61-3.97a1.043,1.043,0,0,0-.56-0.57l-3.93-1.62,0.57-4.25a1.031,1.031,0,0,0-.2-0.78l-2.61-3.39,2.61-3.39a1.031,1.031,0,0,0,.2-0.78l-0.57-4.25,3.93-1.62a1.043,1.043,0,0,0,.56-0.57l1.61-3.97,4.21,0.58a1,1,0,0,0,.76-0.21l3.36-2.63,3.36,2.63a1.013,1.013,0,0,0,.77.21l4.2-.58,1.61,3.97a1.043,1.043,0,0,0,.56.57l3.94,1.62-0.58,4.25a1.075,1.075,0,0,0,.2.78l2.61,3.39Z" transform="translate(-1399 -3698.03)"/>
</svg>
