<svg xmlns="http://www.w3.org/2000/svg" width="18" height="14" viewBox="0 0 18 14">
  <defs>
    <style>
      .cls-1 {
        fill-rule: evenodd;
      }
    </style>
  </defs>
  <path id="mail.svg" class="cls-1" d="M833.8,140H820.2a2.227,2.227,0,0,0-2.2,2.249v9.5a2.228,2.228,0,0,0,2.2,2.25h13.6a2.228,2.228,0,0,0,2.2-2.25v-9.5A2.225,2.225,0,0,0,833.8,140Zm1.2,11.75a1.21,1.21,0,0,1-1.2,1.222H820.2a1.211,1.211,0,0,1-1.2-1.222v-9.5a1.211,1.211,0,0,1,1.2-1.222h13.6a1.21,1.21,0,0,1,1.2,1.222v9.5h0Zm-5.646-4.868,4.4-4.035a0.524,0.524,0,0,0,.037-0.727,0.5,0.5,0,0,0-.711-0.038l-6.071,5.569-1.184-1.081a0.021,0.021,0,0,1-.008-0.012,0.812,0.812,0,0,0-.082-0.072l-4.819-4.408a0.5,0.5,0,0,0-.711.042,0.521,0.521,0,0,0,.041.727l4.454,4.069-4.436,4.244a0.524,0.524,0,0,0-.022.727,0.509,0.509,0,0,0,.369.164,0.5,0.5,0,0,0,.342-0.137l4.5-4.3,1.222,1.115a0.494,0.494,0,0,0,.67,0l1.255-1.149,4.477,4.346a0.491,0.491,0,0,0,.346.142,0.5,0.5,0,0,0,.365-0.16,0.524,0.524,0,0,0-.018-0.727Z" transform="translate(-818 -140)"/>
</svg>
