<svg xmlns="http://www.w3.org/2000/svg" width="25.719" height="29.53" viewBox="0 0 25.719 29.53">
  <defs>
    <style>
      .cls-1 {
        fill: #7eb1fe;
        fill-rule: evenodd;
      }
    </style>
  </defs>
  <path id="mailbot.svg" class="cls-1" d="M993.155,4536H972.573a2.593,2.593,0,0,1-2.573-2.6v-15.58a0.881,0.881,0,0,1,.243-0.6s0,0,.008-0.01l3.179-3.21v-6.68a0.862,0.862,0,0,1,.858-0.86H991.44a0.862,0.862,0,0,1,.858.86V4514l3.179,3.21a0.89,0.89,0,0,1,.251.61v15.58A2.591,2.591,0,0,1,993.155,4536Zm-0.355-1.73-6.861-6.93h-6.15l-6.861,6.93H992.8Zm-19.37-17.82-1.36,1.38,1.36,1.37v-2.75Zm-1.715,3.46v13.13l6.506-6.56Zm18.868-5.55h0v-6.17H975.146v6.17h0v6.57l4.643,4.68h6.15l4.644-4.68v-6.57Zm1.715,2.09v2.75l1.36-1.37Zm1.715,3.46-6.506,6.57,6.506,6.56v-13.13Zm-13.455-.28a4.405,4.405,0,0,0,4.328.21,0.856,0.856,0,0,1,1.138.42,0.869,0.869,0,0,1-.421,1.15,6.094,6.094,0,1,1,3.264-5.43,2.561,2.561,0,0,1-4.288,1.93,2.564,2.564,0,0,1-1.715.67,2.6,2.6,0,1,1,2.573-2.6v0.01a0.858,0.858,0,0,0,1.715-.01A4.288,4.288,0,1,0,980.558,4519.63Zm2.306-4.52a0.865,0.865,0,1,0,.846,1.01,0.878,0.878,0,0,1,.006-0.24A0.865,0.865,0,0,0,982.864,4515.11Z" transform="translate(-970 -4506.47)"/>
</svg>
