<svg xmlns="http://www.w3.org/2000/svg" width="15" height="20" viewBox="0 0 15 20">
  <defs>
    <style>
      .cls-1 {
        fill-rule: evenodd;
      }
    </style>
  </defs>
  <path id="map.svg" class="cls-1" d="M1082.5,138a7.282,7.282,0,0,0-7.5,7.031,6.719,6.719,0,0,0,1.12,3.7l5.95,8.994a0.65,0.65,0,0,0,.53.276h0.01a0.625,0.625,0,0,0,.53-0.284l5.8-9.082a6.712,6.712,0,0,0,1.06-3.6A7.282,7.282,0,0,0,1082.5,138Zm5.37,10.032-5.28,8.256-5.41-8.177a5.581,5.581,0,0,1-.94-3.08,6.268,6.268,0,0,1,12.51,0A5.544,5.544,0,0,1,1087.87,148.031Zm-5.37-6.516a3.523,3.523,0,1,0,3.75,3.515A3.641,3.641,0,0,0,1082.5,141.515Zm0,5.867a2.356,2.356,0,1,1,2.5-2.352A2.434,2.434,0,0,1,1082.5,147.382Z" transform="translate(-1075 -138)"/>
</svg>
