<svg xmlns="http://www.w3.org/2000/svg" width="19.94" height="28.72" viewBox="0 0 19.94 28.72">
  <defs>
    <style>
      .cls-1 {
        fill: #7eb1fe;
        fill-rule: evenodd;
      }
    </style>
  </defs>
  <path id="mapbot.svg" class="cls-1" d="M1280.97,4506a10.116,10.116,0,0,0-8.48,15.4l7.91,12.91a0.839,0.839,0,0,0,.71.4h0.01a0.819,0.819,0,0,0,.7-0.41l7.72-13.04a10.156,10.156,0,0,0,1.4-5.17A10.043,10.043,0,0,0,1280.97,4506Zm7.14,14.4-7.01,11.85-7.2-11.74A8.319,8.319,0,1,1,1288.11,4520.4Zm-7.14-9.35a5.045,5.045,0,1,0,4.99,5.04A5.013,5.013,0,0,0,1280.97,4511.05Zm0,8.42a3.375,3.375,0,1,1,3.33-3.38A3.359,3.359,0,0,1,1280.97,4519.47Z" transform="translate(-1271 -4506)"/>
</svg>
