<svg xmlns="http://www.w3.org/2000/svg" width="28.375" height="28.69" viewBox="0 0 28.375 28.69">
  <defs>
    <style>
      .cls-1 {
        fill: #7eb1fe;
        fill-rule: evenodd;
      }
    </style>
  </defs>
  <path id="phonebot.svg" class="cls-1" d="M379.27,4527.47l-3.524-3.57a2.481,2.481,0,0,0-3.525,0l-1.6,1.62a1.883,1.883,0,0,1-2.67,0L361,4518.49a1.935,1.935,0,0,1,0-2.71l1.6-1.62a2.545,2.545,0,0,0,0-3.57l-3.523-3.55a2.468,2.468,0,0,0-3.522-.01c-0.726.73-.96,0.97-1.285,1.29a9.192,9.192,0,0,0,0,12.87l11,11.14a8.9,8.9,0,0,0,12.711,0l1.281-1.3A2.538,2.538,0,0,0,379.27,4527.47Zm-22.538-19.24a0.822,0.822,0,0,1,1.176,0l3.524,3.55a0.85,0.85,0,0,1,0,1.19l-0.588.6-4.7-4.76Zm9.721,22.91-11-11.14a7.462,7.462,0,0,1-.458-9.98l4.683,4.74a3.617,3.617,0,0,0,.154,4.91l6.944,7.04h0a3.521,3.521,0,0,0,4.854.16l4.683,4.74A7.227,7.227,0,0,1,366.453,4531.14Zm11.643-1.3-0.588.6-4.7-4.76,0.588-.59a0.821,0.821,0,0,1,1.175,0l3.525,3.56A0.852,0.852,0,0,1,378.1,4529.84Z" transform="translate(-351.656 -4506.31)"/>
</svg>
