<svg xmlns="http://www.w3.org/2000/svg" width="20" height="21" viewBox="0 0 20 21">
  <defs>
    <style>
      .cls-1 {
        fill-rule: evenodd;
      }
    </style>
  </defs>
  <path id="phone.svg" class="cls-1" d="M1387.46,152.484l-2.48-2.611a1.7,1.7,0,0,0-2.49,0l-1.12,1.186a1.3,1.3,0,0,1-1.89,0l-4.89-5.149a1.45,1.45,0,0,1,0-1.979c0.18-.191.7-0.74,1.13-1.186a1.918,1.918,0,0,0,0-2.613l-2.49-2.6a1.7,1.7,0,0,0-2.48,0c-0.51.533-.68,0.705-0.9,0.944a6.911,6.911,0,0,0,0,9.418l7.75,8.156a6.116,6.116,0,0,0,8.96,0l0.9-.95A1.905,1.905,0,0,0,1387.46,152.484ZM1371.58,138.4a0.568,0.568,0,0,1,.83,0l2.48,2.6a0.633,0.633,0,0,1,0,.869l-0.41.436-3.31-3.48Zm6.85,16.774-7.76-8.156a5.621,5.621,0,0,1-.32-7.3l3.3,3.469a2.724,2.724,0,0,0,.11,3.6l4.89,5.15h0.01a2.41,2.41,0,0,0,3.42.114l3.3,3.47A4.96,4.96,0,0,1,1378.43,155.174Zm8.21-.949-0.42.435-3.31-3.482,0.41-.436a0.57,0.57,0,0,1,.83,0l2.49,2.613A0.656,0.656,0,0,1,1386.64,154.225Z" transform="translate(-1368 -137)"/>
</svg>
