<svg xmlns="http://www.w3.org/2000/svg" width="31" height="31" viewBox="0 0 31 31">
  <defs>
    <style>
      .cls-1 {
        fill: #7eb1fe;
        fill-rule: evenodd;
      }
    </style>
  </defs>
  <path id="watch.svg" class="cls-1" d="M678.045,4517.27a0.7,0.7,0,0,1-.7-0.7,0.7,0.7,0,1,1,1.409,0A0.7,0.7,0,0,1,678.045,4517.27Zm0,9.86a0.7,0.7,0,1,1,.705-0.7A0.7,0.7,0,0,1,678.045,4527.13Zm4.227,2.82a0.7,0.7,0,1,1-1.409,0A0.7,0.7,0,0,1,682.272,4529.95Zm-0.7-17.61a0.7,0.7,0,0,1,.705.7,0.7,0.7,0,1,1-1.409,0A0.7,0.7,0,0,1,681.568,4512.34Zm13.386,13.39a0.7,0.7,0,0,1,.7.7,0.7,0.7,0,1,1-1.409,0A0.7,0.7,0,0,1,694.954,4525.73Zm0-9.87a0.708,0.708,0,0,1,.7.71,0.7,0.7,0,0,1-1.409,0A0.709,0.709,0,0,1,694.954,4515.86Zm-5.5-6.69a12.682,12.682,0,1,1-2.959-.35,0.663,0.663,0,0,1,.7.7v2.11a0.7,0.7,0,1,1-1.409,0v-1.4a11.36,11.36,0,0,0-10.568,10.56h1.409a0.672,0.672,0,0,1,.705.71,0.664,0.664,0,0,1-.705.7H675.3a11.229,11.229,0,0,0,10.5,10.5v-1.34a0.7,0.7,0,0,1,1.409,0v1.34a11.229,11.229,0,0,0,10.5-10.5h-1.339a0.663,0.663,0,0,1-.7-0.7,0.671,0.671,0,0,1,.7-0.71h1.41a11.4,11.4,0,0,0-8.666-10.28A0.693,0.693,0,1,1,689.459,4509.17Zm1.268,3.87a0.7,0.7,0,0,1,1.409,0A0.7,0.7,0,1,1,690.727,4513.04Zm1.412,16.92a0.7,0.7,0,1,1-.7-0.71A0.706,0.706,0,0,1,692.139,4529.96Zm-5.639-14.8a0.663,0.663,0,0,1,.7.7v3.67a2.044,2.044,0,0,1,1.41,1.97,1.927,1.927,0,0,1-.212.91l4.228,4.23a0.687,0.687,0,0,1,0,.99,0.685,0.685,0,0,1-.987,0l-4.227-4.23a1.962,1.962,0,0,1-.916.21,2.072,2.072,0,0,1-2.114-2.11,2.044,2.044,0,0,1,1.409-1.97v-3.67A0.664,0.664,0,0,1,686.5,4515.16Zm0,7.04a0.663,0.663,0,0,0,.7-0.7,0.7,0.7,0,1,0-1.409,0A0.664,0.664,0,0,0,686.5,4522.2Zm2.959,14.52a0.681,0.681,0,0,1-.845-0.57,0.726,0.726,0,0,1,.563-0.84,13.982,13.982,0,1,0-2.677.28,0.705,0.705,0,0,1,0,1.41A15.471,15.471,0,1,1,689.459,4536.72Z" transform="translate(-671 -4506)"/>
</svg>
